<?xml version="1.0" encoding="UTF-8"?>
<!DOCTYPE svg PUBLIC "-//W3C//DTD SVG 1.1//EN" "http://www.w3.org/Graphics/SVG/1.1/DTD/svg11.dtd">
<svg xmlns="http://www.w3.org/2000/svg" version="1.1" width="512px" height="220px" style="shape-rendering:geometricPrecision; text-rendering:geometricPrecision; image-rendering:optimizeQuality; fill-rule:evenodd; clip-rule:evenodd" xmlns:xlink="http://www.w3.org/1999/xlink">
<g><path style="opacity:0.999" fill="#7c7b7b" d="M 48.5,12.5 C 53.5,12.5 58.5,12.5 63.5,12.5C 63.8261,21.0168 63.4927,29.3501 62.5,37.5C 62.6567,36.1266 62.49,34.7932 62,33.5C 57.5986,34.4667 53.0986,34.8 48.5,34.5C 48.5,27.1667 48.5,19.8333 48.5,12.5 Z"/></g>
<g><path style="opacity:0.02" fill="#757676" d="M 47.5,12.5 C 47.5,20.8333 47.5,29.1667 47.5,37.5C 46.1752,33.7238 45.5085,29.5572 45.5,25C 45.5085,20.4428 46.1752,16.2762 47.5,12.5 Z"/></g>
<g><path style="opacity:0.992" fill="#7d7c7c" d="M 28.5,17.5 C 28.7869,19.1207 29.7869,20.1207 31.5,20.5C 33.7594,20.2155 35.4261,19.2155 36.5,17.5C 38.4533,23.0738 39.12,29.0738 38.5,35.5C 34.1667,35.5 29.8333,35.5 25.5,35.5C 25.3339,29.8236 25.5006,24.1569 26,18.5C 26.6708,17.7476 27.5041,17.4142 28.5,17.5 Z"/></g>
<g><path style="opacity:0.119" fill="#c4c4c4" d="M 28.5,17.5 C 31.1667,17.5 33.8333,17.5 36.5,17.5C 35.4261,19.2155 33.7594,20.2155 31.5,20.5C 29.7869,20.1207 28.7869,19.1207 28.5,17.5 Z"/></g>
<g><path style="opacity:0.085" fill="#494b4a" d="M 21.5,22.5 C 18.4816,22.3354 15.4816,22.502 12.5,23C 11.9011,24.6225 11.2344,26.1225 10.5,27.5C 10.2707,20.523 13.6041,18.023 20.5,20C 21.2524,20.6708 21.5858,21.5041 21.5,22.5 Z"/></g>
<g><path style="opacity:0.97" fill="#7a7979" d="M 21.5,22.5 C 21.5,26.5 21.5,30.5 21.5,34.5C 18.016,34.6767 15.016,35.6767 12.5,37.5C 10.5977,34.6627 9.93104,31.3293 10.5,27.5C 11.2344,26.1225 11.9011,24.6225 12.5,23C 15.4816,22.502 18.4816,22.3354 21.5,22.5 Z"/></g>
<g><path style="opacity:0.914" fill="#979696" d="M 47.5,12.5 C 47.8333,12.5 48.1667,12.5 48.5,12.5C 48.5,19.8333 48.5,27.1667 48.5,34.5C 53.0986,34.8 57.5986,34.4667 62,33.5C 62.49,34.7932 62.6567,36.1266 62.5,37.5C 57.5,37.5 52.5,37.5 47.5,37.5C 47.5,29.1667 47.5,20.8333 47.5,12.5 Z"/></g>
<g><path style="opacity:0.102" fill="#a4a6a5" d="M 21.5,34.5 C 21.5,35.5 21.5,36.5 21.5,37.5C 18.5,37.5 15.5,37.5 12.5,37.5C 15.016,35.6767 18.016,34.6767 21.5,34.5 Z"/></g>
<g><path style="opacity:0.039" fill="#5a5c5b" d="M 116.5,37.5 C 117.267,38.172 117.934,39.0053 118.5,40C 116.815,41.9456 114.815,43.4456 112.5,44.5C 113.833,42.1667 115.167,39.8333 116.5,37.5 Z"/></g>
<g><path style="opacity:0.994" fill="#807f7f" d="M 61.5,74.5 C 55.5,73.1667 49.5,73.1667 43.5,74.5C 42.3412,64.008 42.1745,53.3414 43,42.5C 50.0787,41.5201 57.2454,41.1868 64.5,41.5C 64.5,52.5 64.5,63.5 64.5,74.5C 63.5,74.5 62.5,74.5 61.5,74.5 Z"/></g>
<g><path style="opacity:0.008" fill="#6a6d6b" d="M 80.5,44.5 C 79.8333,43.1667 79.8333,43.1667 80.5,44.5 Z"/></g>
<g><path style="opacity:0.998" fill="#7c7b7b" d="M 31.5,46.5 C 32.4916,46.3284 33.1583,46.6618 33.5,47.5C 33.4287,53.5249 33.4287,59.8583 33.5,66.5C 29.5,66.5 25.5,66.5 21.5,66.5C 21.8222,60.642 21.4889,54.9753 20.5,49.5C 20.2852,47.8212 20.9519,46.8212 22.5,46.5C 25.4773,45.3224 28.4773,45.3224 31.5,46.5 Z"/></g>
<g><path style="opacity:0.055" fill="#434544" d="M 31.5,46.5 C 33.1284,45.1472 34.4617,45.4805 35.5,47.5C 34.8333,47.5 34.1667,47.5 33.5,47.5C 33.1583,46.6618 32.4916,46.3284 31.5,46.5 Z"/></g>
<g><path style="opacity:0.173" fill="#585a59" d="M 22.5,46.5 C 20.9519,46.8212 20.2852,47.8212 20.5,49.5C 20.5,56.5 20.5,63.5 20.5,70.5C 19.5073,62.3501 19.1739,54.0168 19.5,45.5C 20.791,45.2627 21.791,45.596 22.5,46.5 Z"/></g>
<g><path style="opacity:0.192" fill="#b3b5b4" d="M 192.5,63.5 C 214.169,63.3334 235.836,63.5 257.5,64C 258.791,65.2917 258.791,66.4583 257.5,67.5C 256.883,67.6107 256.383,67.944 256,68.5C 253.52,66.8339 250.687,66.0006 247.5,66C 230.635,65.188 213.802,65.3546 197,66.5C 194.815,66.3023 193.315,65.3023 192.5,63.5 Z"/></g>
<g><path style="opacity:0.997" fill="#7e7d7d" d="M 86.5,63.5 C 86.4142,64.4959 86.7476,65.3292 87.5,66C 89.1667,66.1667 90.8333,66.3333 92.5,66.5C 111.85,66.2345 130.85,65.2345 149.5,63.5C 164.982,66.7522 174.648,76.0855 178.5,91.5C 180.242,104.134 177.908,115.801 171.5,126.5C 166.061,133.299 159.061,136.966 150.5,137.5C 137.989,137.171 125.655,137.505 113.5,138.5C 113.5,146.167 113.5,153.833 113.5,161.5C 106.11,161.764 98.7771,161.43 91.5,160.5C 91.5,160.167 91.5,159.833 91.5,159.5C 92.8309,152.197 93.4976,144.53 93.5,136.5C 93.4976,128.47 92.8309,120.803 91.5,113.5C 91.5,113.167 91.5,112.833 91.5,112.5C 92.5,112.5 93.5,112.5 94.5,112.5C 113.662,113.662 132.996,113.829 152.5,113C 153.84,110.821 153.507,110.321 151.5,111.5C 151.5,110.833 151.5,110.167 151.5,109.5C 156.499,106.153 157.833,101.487 155.5,95.5C 153.293,94.7441 151.96,93.7441 151.5,92.5C 151.423,91.2502 150.756,90.4169 149.5,90C 123.502,89.5 97.5021,89.3334 71.5,89.5C 71.5,90.5 71.5,91.5 71.5,92.5C 71.1667,92.5 70.8333,92.5 70.5,92.5C 70.5,91.1667 70.5,89.8333 70.5,88.5C 70.7667,84.4256 72.1,80.7589 74.5,77.5C 78.0444,72.3893 82.0444,67.7226 86.5,63.5 Z"/></g>
<g><path style="opacity:0.214" fill="#bdbfbe" d="M 86.5,63.5 C 107.5,63.5 128.5,63.5 149.5,63.5C 130.85,65.2345 111.85,66.2345 92.5,66.5C 90.8333,66.3333 89.1667,66.1667 87.5,66C 86.7476,65.3292 86.4142,64.4959 86.5,63.5 Z"/></g>
<g><path style="opacity:0.184" fill="#434544" d="M 316.5,63.5 C 317.5,63.8333 318.167,64.5 318.5,65.5C 318.44,66.0431 318.107,66.3764 317.5,66.5C 316.614,65.675 316.281,64.675 316.5,63.5 Z"/></g>
<g><path style="opacity:0.996" fill="#7d7d7d" d="M 268.5,63.5 C 268.47,64.4972 268.97,65.1639 270,65.5C 271.958,66.0512 273.958,66.3845 276,66.5C 288.043,65.2233 299.876,65.2233 311.5,66.5C 312.087,65.7666 312.087,64.7666 311.5,63.5C 313.167,63.5 314.833,63.5 316.5,63.5C 316.281,64.675 316.614,65.675 317.5,66.5C 318.107,66.3764 318.44,66.0431 318.5,65.5C 327.206,67.2808 334.039,71.9475 339,79.5C 343.182,87.551 345.015,96.2177 344.5,105.5C 343.883,105.611 343.383,105.944 343,106.5C 342.605,109.207 342.105,111.873 341.5,114.5C 340.09,122.74 335.756,128.907 328.5,133C 335.356,141.021 342.023,149.188 348.5,157.5C 349.466,159.396 349.799,161.396 349.5,163.5C 340.161,163.666 330.827,163.5 321.5,163C 314.969,154.975 308.302,147.142 301.5,139.5C 293.231,137.53 284.565,136.864 275.5,137.5C 275.5,138.5 275.5,139.5 275.5,140.5C 275.5,140.833 275.5,141.167 275.5,141.5C 274.788,148.143 274.454,154.809 274.5,161.5C 268.402,160.883 262.735,161.55 257.5,163.5C 256.833,163.5 256.167,163.5 255.5,163.5C 255.181,146.09 255.515,128.756 256.5,111.5C 275.512,111.833 294.512,111.5 313.5,110.5C 321.494,107.677 323.494,102.51 319.5,95C 318.5,94.6667 317.5,94.3333 316.5,94C 317.738,93.31 317.738,92.81 316.5,92.5C 315.571,91.6851 314.571,90.8518 313.5,90C 293.836,89.5 274.169,89.3334 254.5,89.5C 258.247,80.185 262.914,71.5183 268.5,63.5 Z"/></g>
<g><path style="opacity:0.192" fill="#b5b7b6" d="M 268.5,63.5 C 282.833,63.5 297.167,63.5 311.5,63.5C 312.087,64.7666 312.087,65.7666 311.5,66.5C 299.876,65.2233 288.043,65.2233 276,66.5C 273.958,66.3845 271.958,66.0512 270,65.5C 268.97,65.1639 268.47,64.4972 268.5,63.5 Z"/></g>
<g><path style="opacity:0.82" fill="#8f9090" d="M 33.5,47.5 C 34.1667,47.5 34.8333,47.5 35.5,47.5C 35.5,55.1667 35.5,62.8333 35.5,70.5C 30.5,70.5 25.5,70.5 20.5,70.5C 20.5,63.5 20.5,56.5 20.5,49.5C 21.4889,54.9753 21.8222,60.642 21.5,66.5C 25.5,66.5 29.5,66.5 33.5,66.5C 33.4287,59.8583 33.4287,53.5249 33.5,47.5 Z"/></g>
<g><path style="opacity:1" fill="#7f7e7e" d="M 192.5,63.5 C 193.315,65.3023 194.815,66.3023 197,66.5C 213.802,65.3546 230.635,65.188 247.5,66C 250.687,66.0006 253.52,66.8339 256,68.5C 256.383,67.944 256.883,67.6107 257.5,67.5C 253.938,75.3391 250.271,83.1725 246.5,91C 246.164,92.0299 245.497,92.5299 244.5,92.5C 244.5,91.5 244.5,90.5 244.5,89.5C 238.402,88.8833 232.735,89.55 227.5,91.5C 227.167,91.5 226.833,91.5 226.5,91.5C 225.503,113.994 225.169,136.661 225.5,159.5C 219.167,160.833 212.833,160.833 206.5,159.5C 205.833,156.167 205.167,152.833 204.5,149.5C 204.5,130.5 204.5,111.5 204.5,92.5C 206.443,91.9217 206.777,90.9217 205.5,89.5C 196.925,89.0972 188.592,88.0972 180.5,86.5C 183.684,78.8254 187.684,71.1587 192.5,63.5 Z"/></g>
<g><path style="opacity:0.249" fill="#555555" d="M 43.5,74.5 C 49.5,73.1667 55.5,73.1667 61.5,74.5C 55.8085,74.5756 49.8085,74.5756 43.5,74.5 Z"/></g>
<g><path style="opacity:0.99" fill="#7e7d7d" d="M 101.5,36.5 C 102.492,38.0265 103.992,38.6932 106,38.5C 107.681,38.3917 108.848,37.7251 109.5,36.5C 111.861,36.6741 114.194,37.0074 116.5,37.5C 115.167,39.8333 113.833,42.1667 112.5,44.5C 109.812,44.1658 107.479,44.8325 105.5,46.5C 105.043,44.4433 104.043,44.4433 102.5,46.5C 99.3896,49.2218 95.7229,51.2218 91.5,52.5C 91.5,53.5 91.5,54.5 91.5,55.5C 88.9567,56.3568 86.6234,57.6901 84.5,59.5C 72.5468,71.0282 65.5468,85.0282 63.5,101.5C 61.8235,102.183 61.1568,103.517 61.5,105.5C 61.4385,110.878 61.2719,116.212 61,121.5C 62.3889,112.548 64.0555,103.548 66,94.5C 66.7083,93.6195 67.5416,92.9528 68.5,92.5C 68.2852,94.1788 68.9519,95.1788 70.5,95.5C 69.0739,113.059 71.4073,130.059 77.5,146.5C 77.7549,148.967 78.7549,150.967 80.5,152.5C 93.2742,170.908 110.608,181.908 132.5,185.5C 132.47,186.497 132.97,187.164 134,187.5C 138.124,188.572 142.29,188.738 146.5,188C 147.252,187.329 147.586,186.496 147.5,185.5C 150.898,185.82 154.232,185.487 157.5,184.5C 164.521,182.225 171.187,179.558 177.5,176.5C 177.785,178.288 177.452,179.955 176.5,181.5C 174.495,185.131 172.162,187.798 169.5,189.5C 163.013,195.711 155.346,199.711 146.5,201.5C 146.5,200.5 146.5,199.5 146.5,198.5C 143.784,198.386 141.784,199.386 140.5,201.5C 137.5,201.5 134.5,201.5 131.5,201.5C 131.306,199.088 129.973,198.088 127.5,198.5C 127.5,199.5 127.5,200.5 127.5,201.5C 115.158,199.012 103.658,194.345 93,187.5C 99.6056,195.077 108.106,200.077 118.5,202.5C 118.386,204.718 117.72,206.718 116.5,208.5C 109.342,208.288 102.342,207.122 95.5,205C 74.6986,196.026 59.1986,179.526 49,155.5C 48.1785,152.883 47.6785,150.216 47.5,147.5C 47.0733,144.99 46.4067,142.657 45.5,140.5C 44.3833,136.705 43.7167,132.705 43.5,128.5C 44.1066,126.254 44.44,123.921 44.5,121.5C 44.4609,119.048 43.7943,117.048 42.5,115.5C 43.7117,108.854 44.8784,102.188 46,95.5C 47.948,89.1608 49.7813,82.8274 51.5,76.5C 54.8333,76.5 58.1667,76.5 61.5,76.5C 61.0825,77.2216 60.4158,77.7216 59.5,78C 61.5938,79.3515 63.9272,79.8515 66.5,79.5C 66.7373,78.209 66.404,77.209 65.5,76.5C 65.1703,70.1318 65.5037,63.7985 66.5,57.5C 70.5593,52.438 75.226,48.1047 80.5,44.5C 82.471,42.8476 84.8044,41.6809 87.5,41C 87.1667,40.6667 86.8333,40.3333 86.5,40C 91.2526,37.7284 96.2526,36.5617 101.5,36.5 Z M 65.5,147.5 C 67.0739,149.102 67.7406,151.102 67.5,153.5C 66.2616,151.786 65.595,149.786 65.5,147.5 Z M 67.5,153.5 C 69.5043,155.838 70.671,158.505 71,161.5C 69.0073,159.182 67.8406,156.516 67.5,153.5 Z M 76.5,170.5 C 78.914,171.911 80.5806,173.911 81.5,176.5C 79.086,175.089 77.4194,173.089 76.5,170.5 Z M 81.5,176.5 C 83.337,176.639 83.6704,177.306 82.5,178.5C 81.7025,178.043 81.3691,177.376 81.5,176.5 Z M 85.5,181.5 C 83.663,181.361 83.3296,180.694 84.5,179.5C 85.2975,179.957 85.6309,180.624 85.5,181.5 Z M 85.5,181.5 C 86.2389,181.369 86.9056,181.536 87.5,182C 88.748,183.4 89.748,184.9 90.5,186.5C 88.1448,185.478 86.4782,183.812 85.5,181.5 Z"/></g>
<g><path style="opacity:0.341" fill="#6c6d6d" d="M 61.5,76.5 C 63.1388,76.9258 64.4721,76.9258 65.5,76.5C 66.404,77.209 66.7373,78.209 66.5,79.5C 63.9272,79.8515 61.5938,79.3515 59.5,78C 60.4158,77.7216 61.0825,77.2216 61.5,76.5 Z"/></g>
<g><path style="opacity:0.071" fill="#c7c9c8" d="M 105.5,46.5 C 104.5,46.5 103.5,46.5 102.5,46.5C 104.043,44.4433 105.043,44.4433 105.5,46.5 Z"/></g>
<g><path style="opacity:0.025" fill="#4c4e4d" d="M 101.5,36.5 C 104.167,36.5 106.833,36.5 109.5,36.5C 108.848,37.7251 107.681,38.3917 106,38.5C 103.992,38.6932 102.492,38.0265 101.5,36.5 Z"/></g>
<g><path style="opacity:0.111" fill="#555756" d="M 180.5,87.5 C 180.5,89.1667 180.5,90.8333 180.5,92.5C 179.833,92.1667 179.167,91.8333 178.5,91.5C 178.229,89.6203 178.896,88.287 180.5,87.5 Z"/></g>
<g><path style="opacity:0.945" fill="#929292" d="M 180.5,86.5 C 188.592,88.0972 196.925,89.0972 205.5,89.5C 206.777,90.9217 206.443,91.9217 204.5,92.5C 204.5,91.5 204.5,90.5 204.5,89.5C 196.833,89.5 189.167,89.5 181.5,89.5C 181.5,90.5 181.5,91.5 181.5,92.5C 181.167,92.5 180.833,92.5 180.5,92.5C 180.5,90.8333 180.5,89.1667 180.5,87.5C 180.5,87.1667 180.5,86.8333 180.5,86.5 Z"/></g>
<g><path style="opacity:0.176" fill="#abacab" d="M 151.5,92.5 C 124.833,92.5 98.1667,92.5 71.5,92.5C 71.5,91.5 71.5,90.5 71.5,89.5C 97.5021,89.3334 123.502,89.5 149.5,90C 150.756,90.4169 151.423,91.2502 151.5,92.5 Z"/></g>
<g><path style="opacity:0.02" fill="#b1b1b1" d="M 204.5,92.5 C 196.833,92.5 189.167,92.5 181.5,92.5C 181.5,91.5 181.5,90.5 181.5,89.5C 189.167,89.5 196.833,89.5 204.5,89.5C 204.5,90.5 204.5,91.5 204.5,92.5 Z"/></g>
<g><path style="opacity:0.018" fill="#afafaf" d="M 244.5,92.5 C 238.642,92.8222 232.975,92.4889 227.5,91.5C 232.735,89.55 238.402,88.8833 244.5,89.5C 244.5,90.5 244.5,91.5 244.5,92.5 Z"/></g>
<g><path style="opacity:0.02" fill="#b2b2b2" d="M 254.5,89.5 C 274.169,89.3334 293.836,89.5 313.5,90C 314.571,90.8518 315.571,91.6851 316.5,92.5C 296.164,92.6666 275.831,92.5 255.5,92C 254.748,91.3292 254.414,90.4959 254.5,89.5 Z"/></g>
<g><path style="opacity:0.051" fill="#424443" d="M 70.5,88.5 C 70.5,89.8333 70.5,91.1667 70.5,92.5C 70.5,93.5 70.5,94.5 70.5,95.5C 68.9519,95.1788 68.2852,94.1788 68.5,92.5C 68.9887,91.0048 69.6554,89.6715 70.5,88.5 Z"/></g>
<g><path style="opacity:0.012" fill="#4a494a" d="M 63.5,101.5 C 63.0113,102.995 62.3446,104.329 61.5,105.5C 61.1568,103.517 61.8235,102.183 63.5,101.5 Z"/></g>
<g><path style="opacity:0.199" fill="#555555" d="M 151.5,109.5 C 151.5,110.167 151.5,110.833 151.5,111.5C 132.674,112.497 113.674,112.83 94.5,112.5C 93.5,112.5 92.5,112.5 91.5,112.5C 111.559,112.142 131.559,111.142 151.5,109.5 Z"/></g>
<g><path style="opacity:0.031" fill="#444645" d="M 344.5,105.5 C 344.323,108.984 343.323,111.984 341.5,114.5C 342.105,111.873 342.605,109.207 343,106.5C 343.383,105.944 343.883,105.611 344.5,105.5 Z"/></g>
<g><path style="opacity:0.865" fill="#8e8d8d" d="M 94.5,112.5 C 113.674,112.83 132.674,112.497 151.5,111.5C 153.507,110.321 153.84,110.821 152.5,113C 132.996,113.829 113.662,113.662 94.5,112.5 Z"/></g>
<g><path style="opacity:0.363" fill="#a3a5a4" d="M 42.5,115.5 C 43.7943,117.048 44.4609,119.048 44.5,121.5C 44.44,123.921 44.1066,126.254 43.5,128.5C 42.5151,124.366 42.1818,120.032 42.5,115.5 Z"/></g>
<g><path style="opacity:0.075" fill="#b1b1b1" d="M 91.5,113.5 C 92.8309,120.803 93.4976,128.47 93.5,136.5C 93.4976,144.53 92.8309,152.197 91.5,159.5C 91.5,144.167 91.5,128.833 91.5,113.5 Z"/></g>
<g><path style="opacity:0.243" fill="#626262" d="M 256.5,111.5 C 255.515,128.756 255.181,146.09 255.5,163.5C 254.732,162.737 254.232,161.737 254,160.5C 253.5,144.17 253.333,127.837 253.5,111.5C 254.5,111.5 255.5,111.5 256.5,111.5 Z"/></g>
<g><path style="opacity:0.053" fill="#474948" d="M 113.5,138.5 C 125.655,137.505 137.989,137.171 150.5,137.5C 150.082,138.222 149.416,138.722 148.5,139C 136.757,139.811 125.091,139.644 113.5,138.5 Z"/></g>
<g><path style="opacity:0.11" fill="#4d4f4e" d="M 301.5,139.5 C 292.749,139.197 284.082,139.53 275.5,140.5C 275.5,139.5 275.5,138.5 275.5,137.5C 284.565,136.864 293.231,137.53 301.5,139.5 Z"/></g>
<g><path style="opacity:0.196" fill="#404040" d="M 64.5,141.5 C 65.404,142.209 65.7373,143.209 65.5,144.5C 64.6618,144.842 64.3284,145.508 64.5,146.5C 63.596,145.791 63.2627,144.791 63.5,143.5C 64.3382,143.158 64.6716,142.492 64.5,141.5 Z"/></g>
<g><path style="opacity:0.004" fill="#4d4d4d" d="M 45.5,140.5 C 46.4067,142.657 47.0733,144.99 47.5,147.5C 46.8826,147.389 46.3826,147.056 46,146.5C 45.5045,144.527 45.3379,142.527 45.5,140.5 Z"/></g>
<g><path style="opacity:0.018" fill="#4b4b4b" d="M 77.5,146.5 C 79.2451,148.033 80.2451,150.033 80.5,152.5C 78.7549,150.967 77.7549,148.967 77.5,146.5 Z"/></g>
<g><path style="opacity:0.125" fill="#656665" d="M 91.5,160.5 C 98.7771,161.43 106.11,161.764 113.5,161.5C 106.576,163.463 99.2428,164.13 91.5,163.5C 91.5,162.5 91.5,161.5 91.5,160.5 Z"/></g>
<g><path style="opacity:0.197" fill="#6c6d6d" d="M 226.5,91.5 C 226.667,115.836 226.5,140.169 226,164.5C 219.247,163.686 212.414,163.186 205.5,163C 204.533,158.599 204.2,154.099 204.5,149.5C 205.167,152.833 205.833,156.167 206.5,159.5C 209.258,160.818 212.424,161.485 216,161.5C 219.576,161.485 222.742,160.818 225.5,159.5C 225.169,136.661 225.503,113.994 226.5,91.5 Z"/></g>
<g><path style="opacity:0.553" fill="#9d9e9e" d="M 206.5,159.5 C 212.833,160.833 219.167,160.833 225.5,159.5C 222.742,160.818 219.576,161.485 216,161.5C 212.424,161.485 209.258,160.818 206.5,159.5 Z"/></g>
<g><path style="opacity:0.204" fill="#676868" d="M 275.5,141.5 C 276.56,148.548 276.56,155.548 275.5,162.5C 269.537,163.496 263.537,163.829 257.5,163.5C 262.735,161.55 268.402,160.883 274.5,161.5C 274.454,154.809 274.788,148.143 275.5,141.5 Z"/></g>
<g><path style="opacity:1" fill="#7d7d7c" d="M 309.5,169.5 C 319.172,169.334 328.839,169.5 338.5,170C 340.871,174.577 343.371,179.077 346,183.5C 347.16,178.847 348.993,174.513 351.5,170.5C 354.428,169.516 357.428,169.183 360.5,169.5C 359.369,174.19 357.869,178.856 356,183.5C 352.774,190.791 349.107,197.791 345,204.5C 344.228,204.355 343.561,204.022 343,203.5C 339.299,194.01 335.299,184.677 331,175.5C 327.164,177.389 322.997,178.055 318.5,177.5C 318.5,178.833 318.5,180.167 318.5,181.5C 321.833,181.5 325.167,181.5 328.5,181.5C 328.5,184.5 328.5,187.5 328.5,190.5C 325.167,190.5 321.833,190.5 318.5,190.5C 318.5,191.5 318.5,192.5 318.5,193.5C 322.182,193.335 325.848,193.501 329.5,194C 330.451,197.057 330.784,200.223 330.5,203.5C 323.5,203.5 316.5,203.5 309.5,203.5C 309.5,192.167 309.5,180.833 309.5,169.5 Z"/></g>
<g><path style="opacity:1" fill="#7d7d7c" d="M 361.5,169.5 C 368.5,169.5 375.5,169.5 382.5,169.5C 382.5,172.167 382.5,174.833 382.5,177.5C 378.833,177.5 375.167,177.5 371.5,177.5C 371.5,178.833 371.5,180.167 371.5,181.5C 374.833,181.5 378.167,181.5 381.5,181.5C 381.5,184.5 381.5,187.5 381.5,190.5C 378.167,190.5 374.833,190.5 371.5,190.5C 371.5,191.5 371.5,192.5 371.5,193.5C 375.226,193.177 378.893,193.511 382.5,194.5C 383.407,197.421 383.74,200.421 383.5,203.5C 376.167,203.5 368.833,203.5 361.5,203.5C 361.5,192.167 361.5,180.833 361.5,169.5 Z"/></g>
<g><path style="opacity:1" fill="#7d7d7c" d="M 386.5,169.5 C 387.873,169.343 389.207,169.51 390.5,170C 395.459,174.49 400.459,178.99 405.5,183.5C 406.493,178.88 406.827,174.214 406.5,169.5C 409.833,169.5 413.167,169.5 416.5,169.5C 416.5,181.167 416.5,192.833 416.5,204.5C 415.022,204.762 413.689,204.429 412.5,203.5C 407.208,198.709 402.041,193.709 397,188.5C 396.501,193.489 396.334,198.489 396.5,203.5C 393.167,203.5 389.833,203.5 386.5,203.5C 386.5,192.167 386.5,180.833 386.5,169.5 Z"/></g>
<g><path style="opacity:1" fill="#7d7d7c" d="M 447.5,177.5 C 444.167,177.5 440.833,177.5 437.5,177.5C 437.666,185.84 437.5,194.173 437,202.5C 433.943,203.451 430.777,203.784 427.5,203.5C 427.5,194.833 427.5,186.167 427.5,177.5C 424.167,177.5 420.833,177.5 417.5,177.5C 417.5,174.833 417.5,172.167 417.5,169.5C 427.5,169.5 437.5,169.5 447.5,169.5C 447.5,172.167 447.5,174.833 447.5,177.5 Z"/></g>
<g><path style="opacity:1" fill="#7d7d7c" d="M 447.5,177.5 C 450.152,176.848 451.818,175.182 452.5,172.5C 459.754,168.724 467.088,168.557 474.5,172C 483.43,181.153 483.763,190.653 475.5,200.5C 465.29,206.613 456.29,205.28 448.5,196.5C 446.18,190.283 445.847,183.949 447.5,177.5 Z M 463.5,177.5 C 470.438,179.892 472.605,184.558 470,191.5C 466.037,196.681 462.037,196.681 458,191.5C 455.599,185.068 457.432,180.401 463.5,177.5 Z"/></g>
<g><path style="opacity:1" fill="#7e7d7d" d="M 487.5,169.5 C 492.179,169.334 496.845,169.501 501.5,170C 502.456,173.394 502.789,176.894 502.5,180.5C 500.567,180.271 498.9,179.438 497.5,178C 495.5,177.333 493.5,177.333 491.5,178C 493.772,180.897 496.772,182.897 500.5,184C 504.984,189.166 505.651,194.832 502.5,201C 496.863,204.788 490.863,205.454 484.5,203C 482.638,199.851 481.971,196.351 482.5,192.5C 486.721,194.067 491.054,195.067 495.5,195.5C 495.649,194.448 495.483,193.448 495,192.5C 491.636,189.971 488.136,187.637 484.5,185.5C 480.099,179.11 481.099,173.776 487.5,169.5 Z"/></g>
<g><path style="opacity:0.2" fill="#575958" d="M 132.5,185.5 C 135.563,185.863 138.563,186.53 141.5,187.5C 143.714,187.389 145.714,186.722 147.5,185.5C 147.586,186.496 147.252,187.329 146.5,188C 142.29,188.738 138.124,188.572 134,187.5C 132.97,187.164 132.47,186.497 132.5,185.5 Z"/></g>
<g><path style="opacity:0.122" fill="#bfc2c1" d="M 146.5,201.5 C 144.5,201.5 142.5,201.5 140.5,201.5C 141.784,199.386 143.784,198.386 146.5,198.5C 146.5,199.5 146.5,200.5 146.5,201.5 Z"/></g>
<g><path style="opacity:0.024" fill="#c9cbca" d="M 131.5,201.5 C 130.167,201.5 128.833,201.5 127.5,201.5C 127.5,200.5 127.5,199.5 127.5,198.5C 129.973,198.088 131.306,199.088 131.5,201.5 Z"/></g>
<g><path style="opacity:0.087" fill="#4c4e4d" d="M 126.5,204.5 C 127.5,204.5 128.5,204.5 129.5,204.5C 129.5,205.833 129.5,207.167 129.5,208.5C 128.5,208.5 127.5,208.5 126.5,208.5C 126.5,207.167 126.5,205.833 126.5,204.5 Z"/></g>
<g><path style="opacity:0.337" fill="#626463" d="M 120.5,202.5 C 121.5,203.167 122.5,203.833 123.5,204.5C 123.179,206.048 122.179,206.715 120.5,206.5C 120.5,205.167 120.5,203.833 120.5,202.5 Z"/></g>
<g><path style="opacity:0.525" fill="#a1a3a2" d="M 118.5,202.5 C 119.167,202.5 119.833,202.5 120.5,202.5C 120.5,203.833 120.5,205.167 120.5,206.5C 122.179,206.715 123.179,206.048 123.5,204.5C 124.5,204.5 125.5,204.5 126.5,204.5C 126.5,205.833 126.5,207.167 126.5,208.5C 123.167,208.5 119.833,208.5 116.5,208.5C 117.72,206.718 118.386,204.718 118.5,202.5 Z"/></g>
</svg>
